# xmcd CD database file
#
# Track frame offsets:
#	150
#	30437
#	57920
#	81790
#	101742
#	132327
#	167727
#	201405
#	243235
#
# Disc length: 3548 seconds
#
# Revision: 0
# Processed by: cddbd v1.5.2PL0 Copyright (c) Steve Scherf et al.
# Submitted via: CDex 1.70beta2
#
DISCID=740dda09
DTITLE=Spike Robinson, Louis Stewart, Janusz Carmello - Three For The Road
DYEAR=1989
DGENRE=Jazz
TTITLE0=They Didn't Believe Me
TTITLE1=Dearly Beloved
TTITLE2=If You Were Mine
TTITLE3=Yes Sir, Thats My Baby
TTITLE4=Only A Rose
TTITLE5=My Buddy
TTITLE6=The Song Is You
TTITLE7=For Heavens Sake
TTITLE8=They Say That Falling In Love Is Wonderful
EXTD=YEAR: 1989
EXTT0=
EXTT1=
EXTT2=
EXTT3=
EXTT4=
EXTT5=
EXTT6=
EXTT7=
EXTT8=
PLAYORDER=
